<svg xmlns="http://www.w3.org/2000/svg" viewBox="0 0 100 120" class="mascot-svg mascot-sm" id="méo-sleeping">
  <!-- Common Méo base -->
  <g id="tail" transform="translate(20, 90)">
    <path d="M 0 0 Q -15 -10 -10 -30 Q -5 -15 0 0" fill="#FCA5A5"/>
  </g>
  <g id="body" transform="translate(50, 70)">
    <path d="M -30 0 C -30 -30 30 -30 30 0 C 30 30 -30 30 -30 0" fill="#FFFFFF" stroke="#1F2937" stroke-width="3"/>
  </g>
  <g id="head" transform="translate(50, 40)">
    <path d="M -35 0 C -35 -40 35 -40 35 0 C 35 30 -35 30 -35 0" fill="#FFFFFF" stroke="#1F2937" stroke-width="3"/>
    <!-- Ears -->
    <path d="M -25 -25 L -35 -45 L -10 -35" fill="#FFFFFF" stroke="#1F2937" stroke-width="3"/>
    <path d="M 25 -25 L 35 -45 L 10 -35" fill="#FFFFFF" stroke="#1F2937" stroke-width="3"/>
    <path d="M -27 -28 L -32 -40 L -15 -33" fill="#FCA5A5"/>
    <path d="M 27 -28 L 32 -40 L 15 -33" fill="#FCA5A5"/>
    <path class="eye" d="M -15 0 L -5 0 M 5 0 L 15 0" stroke="#1F2937" stroke-width="3" stroke-linecap="round"/><path class="mouth-path" d="M -3 12 A 3 3 0 1 0 3 12 A 3 3 0 1 0 -3 12" fill="#1F2937"/><g class="acc-zzz" transform="translate(20, -30)" fill="#1F2937" font-weight="bold" font-family="sans-serif"><text x="0" y="0" font-size="10">z</text><text x="10" y="-10" font-size="14">Z</text><text x="25" y="-25" font-size="20">Z</text></g>
  </g>
</svg>